# xmcd
#
# Track frame offsets:
#	150
#	19098
#	40728
#	61879
#	80871
#	102680
#	131731
#	145510
#	160421
#	183642
#	198299
#	216242
#	238189
#	269132
#	287174
#
# Disc length: 4002 seconds
#
# Revision: 1
# Processed by: cddbd v1.4PL0 Copyright (c) Steve Scherf et al.
# Submitted via: EasyCDDAExtractor 6.0.0.1
#
DISCID=ed0fa00f
DTITLE=Various Artist - Punta del este sessions
DYEAR=2003
DGENRE=Chanson
TTITLE0=Sunset time - Klub Rider
TTITLE1=Flow - L.A. Thomas
TTITLE2=Black Mermaid - Master Cuts
TTITLE3=Play (original mix) - Two to Stay
TTITLE4=Floatboat - Da Break
TTITLE5=Tiny Star - Index
TTITLE6=Electromatic - Clon
TTITLE7=Cala Jondal (Ibiza soft mix) - L&E Sound
TTITLE8=Everyday beat (Mc One mix) - Bass Theory
TTITLE9=Those fatties (id mix) - Lee Avril
TTITLE10=Waterguns - Master Cuts
TTITLE11=Artificial Soundtrack - Stero Dub
TTITLE12=Vine side walk - D&A Proyesct
TTITLE13=Loop in love  (8 pm Sunset Mix) - BMS
TTITLE14=Salinas - South Dolphins
EXTD=YEAR: 2003
EXTT0=
EXTT1=
EXTT2=
EXTT3=
EXTT4=
EXTT5=
EXTT6=
EXTT7=
EXTT8=
EXTT9=
EXTT10=
EXTT11=
EXTT12=
EXTT13=
EXTT14=
PLAYORDER=
